<svg xmlns="http://www.w3.org/2000/svg" width="197" height="197" viewBox="0 0 197 197">
  <g id="Caminho_4" data-name="Caminho 4" fill="none">
    <path d="M98.5,0A98.5,98.5,0,1,1,0,98.5,98.5,98.5,0,0,1,98.5,0Z" stroke="none"/>
    <path d="M 98.5 38 C 65.14018249511719 38 38 65.14018249511719 38 98.5 C 38 131.8598022460938 65.14018249511719 159 98.5 159 C 131.8598022460938 159 159 131.8598022460938 159 98.5 C 159 65.14018249511719 131.8598022460938 38 98.5 38 M 98.5 0 C 152.9000549316406 0 197 44.09994506835938 197 98.5 C 197 152.9000549316406 152.9000549316406 197 98.5 197 C 44.09994506835938 197 0 152.9000549316406 0 98.5 C 0 44.09994506835938 44.09994506835938 0 98.5 0 Z" stroke="none" fill="#1db854"/>
  </g>
</svg>
