<svg xmlns="http://www.w3.org/2000/svg" width="840.979" height="197" viewBox="0 0 840.979 197">
  <g id="Grupo_1" data-name="Grupo 1" transform="translate(-472 -454)">
    <g id="Caminho_3" data-name="Caminho 3" transform="translate(472 454)" fill="none">
      <path d="M98.5,0A98.5,98.5,0,1,1,0,98.5,98.5,98.5,0,0,1,98.5,0Z" stroke="none"/>
      <path d="M 98.5 38 C 65.14018249511719 38 38 65.14018249511719 38 98.5 C 38 131.8598022460938 65.14018249511719 159 98.5 159 C 131.8598022460938 159 159 131.8598022460938 159 98.5 C 159 65.14018249511719 131.8598022460938 38 98.5 38 M 98.5 0 C 152.9000549316406 0 197 44.09994506835938 197 98.5 C 197 152.9000549316406 152.9000549316406 197 98.5 197 C 44.09994506835938 197 0 152.9000549316406 0 98.5 C 0 44.09994506835938 44.09994506835938 0 98.5 0 Z" stroke="none" fill="#1db854"/>
    </g>
    <path id="Caminho_1" data-name="Caminho 1" d="M93.122-32.926v-.4a25.073,25.073,0,0,0-3.03-12.726,30.538,30.538,0,0,0-7.676-8.888,47.36,47.36,0,0,0-10.5-6.161Q66.054-63.63,60.4-65.448q-4.444-1.414-8.383-2.828a64.04,64.04,0,0,1-6.969-2.929A20.186,20.186,0,0,1,40.2-74.437a5.28,5.28,0,0,1-1.818-3.939v-.4a6.443,6.443,0,0,1,2.828-5.353q2.828-2.121,8.484-2.121a41.185,41.185,0,0,1,13.534,2.727,96.651,96.651,0,0,1,15.756,7.373L90.7-97.364a77.363,77.363,0,0,0-19.493-9.191A69.468,69.468,0,0,0,50.3-109.888a51.955,51.955,0,0,0-15.453,2.222A36.082,36.082,0,0,0,22.321-101a32.549,32.549,0,0,0-8.484,10.807,32.763,32.763,0,0,0-3.131,14.645v.4a27.869,27.869,0,0,0,2.929,13.332,29.645,29.645,0,0,0,7.575,9.191,40.91,40.91,0,0,0,10.4,6.06,114.773,114.773,0,0,0,11.413,3.939Q47.47-41.208,51.51-40a72.6,72.6,0,0,1,7.171,2.525A15.257,15.257,0,0,1,63.63-34.34,5.814,5.814,0,0,1,65.448-30.1v.4a6.862,6.862,0,0,1-3.131,5.858q-3.131,2.222-9.8,2.222a47.835,47.835,0,0,1-16.463-3.232,73.192,73.192,0,0,1-17.675-9.7l-13.13,20.2A75.657,75.657,0,0,0,28.179-1.919,75.311,75.311,0,0,0,51.712,2.02,60.086,60.086,0,0,0,67.973-.1,39.6,39.6,0,0,0,81.2-6.464a28.751,28.751,0,0,0,8.787-10.807A36.071,36.071,0,0,0,93.122-32.926ZM208.868-53.934v-.4a64.374,64.374,0,0,0-4.141-23.937,53.851,53.851,0,0,0-11.009-17.574,45.485,45.485,0,0,0-15.756-10.807,48.109,48.109,0,0,0-18.382-3.636q-12.12,0-20.1,4.911a48.55,48.55,0,0,0-13.635,12.527v-15.418h-30.7V32.32h30.7V-14.014A54.089,54.089,0,0,0,139.279-2.79q7.979,4.81,20.3,4.81a48.617,48.617,0,0,0,18.584-3.636,44.491,44.491,0,0,0,15.655-10.807A54.788,54.788,0,0,0,204.727-30,64.374,64.374,0,0,0,208.868-53.934Zm-30.7,0a34.213,34.213,0,0,1-2.121,12.406,29.611,29.611,0,0,1-5.757,9.456,25.453,25.453,0,0,1-8.383,6.1,24.578,24.578,0,0,1-10.2,2.135,24.578,24.578,0,0,1-10.2-2.135,24.4,24.4,0,0,1-8.282-6.1,30.385,30.385,0,0,1-5.656-9.557,34.433,34.433,0,0,1-2.121-12.3v-.4a34.433,34.433,0,0,1,2.121-12.3,30.386,30.386,0,0,1,5.656-9.557,24.4,24.4,0,0,1,8.282-6.1,24.578,24.578,0,0,1,10.2-2.135A24.578,24.578,0,0,1,161.9-82.3a25.453,25.453,0,0,1,8.383,6.1,29.378,29.378,0,0,1,5.757,9.557,34.433,34.433,0,0,1,2.121,12.3Zm145.238,0v-.4a54.273,54.273,0,0,0-4.444-21.917,55.477,55.477,0,0,0-12.221-17.776,56.717,56.717,0,0,0-18.483-11.918,61.214,61.214,0,0,0-23.23-4.343,60.527,60.527,0,0,0-23.432,4.444,58.407,58.407,0,0,0-18.584,12.12,55.858,55.858,0,0,0-12.322,17.877,54.273,54.273,0,0,0-4.444,21.917v.4a54.273,54.273,0,0,0,4.444,21.917,55.476,55.476,0,0,0,12.221,17.776A56.717,56.717,0,0,0,241.39-1.919a61.214,61.214,0,0,0,23.23,4.343A60.527,60.527,0,0,0,288.052-2.02a58.407,58.407,0,0,0,18.584-12.12,55.858,55.858,0,0,0,12.322-17.877A54.273,54.273,0,0,0,323.4-53.934Zm-30.3.4a33.566,33.566,0,0,1-1.919,11.413,28.007,28.007,0,0,1-5.555,9.393,26.1,26.1,0,0,1-8.787,6.363,28.47,28.47,0,0,1-11.817,2.323,26.954,26.954,0,0,1-11.615-2.424,28.938,28.938,0,0,1-8.989-6.565,28.769,28.769,0,0,1-5.858-9.494,32.056,32.056,0,0,1-2.02-11.413v-.4a33.566,33.566,0,0,1,1.919-11.413,28.007,28.007,0,0,1,5.555-9.393,26.1,26.1,0,0,1,8.787-6.363A28.47,28.47,0,0,1,264.62-83.83a27.141,27.141,0,0,1,11.514,2.424,28.6,28.6,0,0,1,9.09,6.565,28.77,28.77,0,0,1,5.858,9.494,32.056,32.056,0,0,1,2.02,11.413ZM386.426-4.444V-29.088a31.27,31.27,0,0,1-15.15,3.838q-9.9,0-9.9-10.5V-82.012H386.83v-26.26H361.378v-27.674h-30.7v27.674H317.746v26.26h12.928V-30.7q0,9.494,2.323,15.655a25.733,25.733,0,0,0,6.464,10A22.862,22.862,0,0,0,349.359.3a50.405,50.405,0,0,0,12.827,1.515A48.243,48.243,0,0,0,375.72.1,47.877,47.877,0,0,0,386.426-4.444ZM422.382-120.19v-27.27h-32.32v27.27ZM421.574,0V-108.272h-30.7V0Zm69.488-120.392v-25.452a58.319,58.319,0,0,0-9.393-2.222,81.652,81.652,0,0,0-12.423-.808q-16.362,0-24.947,8.383t-8.585,26.361v6.868H422.988v25.25h12.726V0h30.7V-82.012H490.86V-107.06H466.014V-111.3q0-11.716,11.11-11.716a34.15,34.15,0,0,1,7.272.707A56.052,56.052,0,0,1,491.062-120.392Zm99.586,12.12H558.732L535.1-34.542l-24.644-73.73H477.932L520.352.4a13.863,13.863,0,0,1-4.343,5.555,11.553,11.553,0,0,1-6.363,1.515,20.335,20.335,0,0,1-6.565-1.212,34.4,34.4,0,0,1-6.565-3.03l-10.3,22.22a59.212,59.212,0,0,0,12.322,5.454,50.185,50.185,0,0,0,14.948,2.02A41.272,41.272,0,0,0,525.6,31.31,25.407,25.407,0,0,0,535,26.058a38.827,38.827,0,0,0,7.575-9.393,83.711,83.711,0,0,0,6.464-14.039Z" transform="translate(683 608)" fill="#fff"/>
    <path id="Caminho_2" data-name="Caminho 2" d="M20.979-9.477a9.578,9.578,0,0,0-.756-3.78,9.813,9.813,0,0,0-2.065-3.1,9.724,9.724,0,0,0-3.092-2.093,9.567,9.567,0,0,0-3.834-.769,9.519,9.519,0,0,0-3.847.783,9.916,9.916,0,0,0-3.119,2.119A9.859,9.859,0,0,0,2.187-13.2a9.578,9.578,0,0,0-.756,3.78,9.578,9.578,0,0,0,.756,3.78A9.813,9.813,0,0,0,4.253-2.538,9.724,9.724,0,0,0,7.344-.445a9.567,9.567,0,0,0,3.834.769,9.519,9.519,0,0,0,3.847-.783,9.916,9.916,0,0,0,3.119-2.12A9.859,9.859,0,0,0,20.223-5.7,9.578,9.578,0,0,0,20.979-9.477Zm-1.134,0a8.682,8.682,0,0,1-.661,3.388,8.759,8.759,0,0,1-1.823,2.768,8.585,8.585,0,0,1-2.74,1.877,8.521,8.521,0,0,1-3.442.689,8.6,8.6,0,0,1-3.416-.675,8.513,8.513,0,0,1-2.741-1.85A8.418,8.418,0,0,1,3.213-6.035a8.84,8.84,0,0,1-.648-3.389,8.682,8.682,0,0,1,.661-3.389,8.759,8.759,0,0,1,1.823-2.767,8.585,8.585,0,0,1,2.74-1.877,8.521,8.521,0,0,1,3.443-.688,8.6,8.6,0,0,1,3.416.675,8.358,8.358,0,0,1,2.727,1.849,8.714,8.714,0,0,1,1.809,2.754A8.682,8.682,0,0,1,19.845-9.477ZM15.876-11.5a3.079,3.079,0,0,0-1.107-2.524,4.553,4.553,0,0,0-2.97-.9H7.182v10.4h2.3V-7.884h1.809L13.5-4.536h2.673L13.635-8.262a3.683,3.683,0,0,0,1.62-1.161A3.25,3.25,0,0,0,15.876-11.5Zm-2.322.135a1.41,1.41,0,0,1-.459,1.094,1.9,1.9,0,0,1-1.323.418h-2.3v-3.051h2.241a2.15,2.15,0,0,1,1.35.378A1.379,1.379,0,0,1,13.554-11.367Z" transform="translate(1292 520)" fill="#fff"/>
  </g>
</svg>
